<svg width="1280" height="720" xmlns="http://www.w3.org/2000/svg" xmlns:xlink="http://www.w3.org/1999/xlink" overflow="hidden"><defs><filter id="fx0" x="-10%" y="-10%" width="120%" height="120%" filterUnits="userSpaceOnUse" primitiveUnits="userSpaceOnUse"><feComponentTransfer color-interpolation-filters="sRGB"><feFuncR type="discrete" tableValues="0.027451 0.027451"/><feFuncG type="discrete" tableValues="0.654902 0.654902"/><feFuncB type="discrete" tableValues="0.580392 0.580392"/><feFuncA type="linear" slope="0.478431" intercept="0"/></feComponentTransfer><feGaussianBlur stdDeviation="4.90481 4.91297"/></filter><filter id="fx1" x="-10%" y="-10%" width="120%" height="120%" filterUnits="userSpaceOnUse" primitiveUnits="userSpaceOnUse"><feComponentTransfer color-interpolation-filters="sRGB"><feFuncR type="discrete" tableValues="0.027451 0.027451"/><feFuncG type="discrete" tableValues="0.654902 0.654902"/><feFuncB type="discrete" tableValues="0.580392 0.580392"/><feFuncA type="linear" slope="0.478431" intercept="0"/></feComponentTransfer><feGaussianBlur stdDeviation="4.88889 4.91297"/></filter><filter id="fx2" x="-10%" y="-10%" width="120%" height="120%" filterUnits="userSpaceOnUse" primitiveUnits="userSpaceOnUse"><feComponentTransfer color-interpolation-filters="sRGB"><feFuncR type="discrete" tableValues="0.027451 0.027451"/><feFuncG type="discrete" tableValues="0.654902 0.654902"/><feFuncB type="discrete" tableValues="0.580392 0.580392"/><feFuncA type="linear" slope="0.478431" intercept="0"/></feComponentTransfer><feGaussianBlur stdDeviation="4.88889 4.91297"/></filter><clipPath id="clip3"><rect x="0" y="0" width="1280" height="720"/></clipPath><linearGradient x1="21.0916" y1="-8.2044" x2="635.908" y2="100.204" gradientUnits="userSpaceOnUse" spreadMethod="reflect" id="fill4"><stop offset="0" stop-color="#07A794"/><stop offset="0.72" stop-color="#141414"/><stop offset="1" stop-color="#141414"/></linearGradient><linearGradient x1="1258.91" y1="100.204" x2="644.092" y2="-8.2044" gradientUnits="userSpaceOnUse" spreadMethod="reflect" id="fill5"><stop offset="0" stop-color="#07A794"/><stop offset="0.72" stop-color="#141414"/><stop offset="1" stop-color="#141414"/></linearGradient><clipPath id="clip6"><path d="M29.5016 566C22.5972 566 17 571.597 17 578.502L17 692.498C17 699.403 22.5972 705 29.5016 705L247.498 705C254.403 705 260 699.403 260 692.498L260 578.502C260 571.597 254.403 566 247.498 566ZM1.90735e-05 1.07288e-05 1280 1.07288e-05 1280 720 1.90735e-05 720Z" fill-rule="evenodd" clip-rule="evenodd"/></clipPath><clipPath id="clip7"><path d="M286.357 566C280.637 566 276 570.637 276 576.357L276 694.643C276 700.363 280.637 705 286.357 705L505.643 705C511.363 705 516 700.363 516 694.643L516 576.357C516 570.637 511.363 566 505.643 566ZM1.90735e-05 1.07288e-05 1280 1.07288e-05 1280 720 1.90735e-05 720Z" fill-rule="evenodd" clip-rule="evenodd"/></clipPath><clipPath id="clip8"><path d="M542.357 566C536.637 566 532 570.637 532 576.357L532 694.643C532 700.363 536.637 705 542.357 705L775.643 705C781.363 705 786 700.363 786 694.643L786 576.357C786 570.637 781.363 566 775.643 566ZM1.90735e-05 1.07288e-05 1280 1.07288e-05 1280 720 1.90735e-05 720Z" fill-rule="evenodd" clip-rule="evenodd"/></clipPath></defs><g clip-path="url(#clip3)"><rect x="0" y="0" width="1280" height="720" fill="#141414"/><path d="M640 66.6663C640 72.3735 635.373 77 629.666 77L27.3336 77C21.6265 77 17 72.3735 17 66.6663L17 25.3337C17 19.6265 21.6265 15 27.3336 15L629.666 15C635.373 15 640 19.6265 640 25.3337Z" stroke="#141414" stroke-width="2" stroke-miterlimit="8" fill="url(#fill4)" fill-rule="evenodd"/><path d="M640 25.3337C640 19.6265 644.627 15 650.334 15L1252.67 15C1258.37 15 1263 19.6265 1263 25.3337L1263 66.6663C1263 72.3735 1258.37 77 1252.67 77L650.334 77C644.627 77 640 72.3735 640 66.6663Z" stroke="#141414" stroke-width="2" stroke-miterlimit="8" fill="url(#fill5)" fill-rule="evenodd"/><path d="M17 95.5116C17 90.2585 21.2585 86 26.5116 86L776.488 86C781.742 86 786 90.2585 786 95.5116L786 540.488C786 545.741 781.742 550 776.488 550L26.5116 550C21.2585 550 17 545.741 17 540.488Z" stroke="#1C1D23" stroke-width="2" stroke-miterlimit="8" fill="#1C1D23" fill-rule="evenodd"/><path d="M802 95.4502C802 90.231 806.231 86 811.45 86L1253.55 86C1258.77 86 1263 90.231 1263 95.4502L1263 695.55C1263 700.769 1258.77 705 1253.55 705L811.45 705C806.231 705 802 700.769 802 695.55Z" stroke="#1C1D23" stroke-width="2" stroke-miterlimit="8" fill="#1C1D23" fill-rule="evenodd"/><g clip-path="url(#clip6)"><g filter="url(#fx0)" transform="matrix(1.99351 0 0 1.9902 -10 539)"><g transform="matrix(1 0 0 1 -8.88178e-16 5.68434e-14)"><path d="M15.9087 22.2167C15.9087 18.7475 18.7164 15.9351 22.1798 15.9351L131.533 15.9351C134.997 15.9351 137.804 18.7475 137.804 22.2167L137.804 79.4959C137.804 82.9651 134.997 85.7775 131.533 85.7775L22.1798 85.7775C18.7164 85.7775 15.9087 82.9651 15.9087 79.4959Z" stroke="#1C1D23" stroke-miterlimit="8" fill="#1C1D23" fill-rule="evenodd"/></g></g></g><path d="M17 578.502C17 571.597 22.5972 566 29.5016 566L247.498 566C254.403 566 260 571.597 260 578.502L260 692.498C260 699.403 254.403 705 247.498 705L29.5016 705C22.5972 705 17 699.403 17 692.498Z" stroke="#1C1D23" stroke-width="2" stroke-miterlimit="8" fill="#1C1D23" fill-rule="evenodd"/><g clip-path="url(#clip7)"><g filter="url(#fx1)" transform="matrix(2 0 0 1.9902 249 539)"><g transform="matrix(1 0 0 1 0 5.68434e-14)"><path d="M15.857 21.1391C15.857 18.265 18.1755 15.9351 21.0355 15.9351L130.679 15.9351C133.539 15.9351 135.857 18.265 135.857 21.1391L135.857 80.5735C135.857 83.4476 133.539 85.7775 130.679 85.7775L21.0355 85.7775C18.1755 85.7775 15.857 83.4476 15.857 80.5735Z" stroke="#1C1D23" stroke-miterlimit="8" fill="#1C1D23" fill-rule="evenodd"/></g></g></g><path d="M276 576.357C276 570.637 280.637 566 286.357 566L505.643 566C511.363 566 516 570.637 516 576.357L516 694.643C516 700.363 511.363 705 505.643 705L286.357 705C280.637 705 276 700.363 276 694.643Z" stroke="#1C1D23" stroke-width="2" stroke-miterlimit="8" fill="#1C1D23" fill-rule="evenodd"/><g clip-path="url(#clip8)"><g filter="url(#fx2)" transform="matrix(2 0 0 1.9902 505 539)"><g transform="matrix(1 0 0 1 0 5.68434e-14)"><path d="M15.857 21.1391C15.857 18.265 18.1755 15.9351 21.0355 15.9351L137.679 15.9351C140.539 15.9351 142.857 18.265 142.857 21.1391L142.857 80.5735C142.857 83.4476 140.539 85.7775 137.679 85.7775L21.0355 85.7775C18.1755 85.7775 15.857 83.4476 15.857 80.5735Z" stroke="#1C1D23" stroke-miterlimit="8" fill="#1C1D23" fill-rule="evenodd"/></g></g></g><path d="M532 576.357C532 570.637 536.637 566 542.357 566L775.643 566C781.363 566 786 570.637 786 576.357L786 694.643C786 700.363 781.363 705 775.643 705L542.357 705C536.637 705 532 700.363 532 694.643Z" stroke="#1C1D23" stroke-width="2" stroke-miterlimit="8" fill="#1C1D23" fill-rule="evenodd"/><path d="M8 635.5C8 619.76 21.8792 607 39 607 56.1208 607 70 619.76 70 635.5 70 651.24 56.1208 664 39 664 21.8792 664 8 651.24 8 635.5Z" stroke="#07A794" stroke-width="2" stroke-miterlimit="8" fill="#07A794" fill-rule="evenodd"/><path d="M267 635.5C267 619.76 280.879 607 298 607 315.121 607 329 619.76 329 635.5 329 651.24 315.121 664 298 664 280.879 664 267 651.24 267 635.5Z" stroke="#07A794" stroke-width="2" stroke-miterlimit="8" fill="#07A794" fill-rule="evenodd"/><path d="M525 635.5C525 619.76 538.879 607 556 607 573.121 607 587 619.76 587 635.5 587 651.24 573.121 664 556 664 538.879 664 525 651.24 525 635.5Z" stroke="#07A794" stroke-width="2" stroke-miterlimit="8" fill="#07A794" fill-rule="evenodd"/></g></svg>